<?xml version="1.0" standalone="no"?>
<!DOCTYPE svg PUBLIC "-//W3C//DTD SVG 20010904//EN"
 "http://www.w3.org/TR/2001/REC-SVG-20010904/DTD/svg10.dtd">
<svg version="1.0" xmlns="http://www.w3.org/2000/svg"
 width="400.000000pt" height="400.000000pt" viewBox="0 0 400.000000 400.000000"
 preserveAspectRatio="xMidYMid meet">
<metadata>
Created by potrace 1.11, written by Peter Selinger 2001-2013
</metadata>
<g transform="translate(0.000000,400.000000) scale(0.100000,-0.100000)"
fill="#000000" stroke="none">
<path d="M1740 3979 c0 -4 8 -10 18 -12 14 -4 13 -5 -3 -6 -12 0 -27 5 -34 12
-11 10 -12 8 -6 -10 5 -17 2 -23 -9 -23 -8 0 -28 -11 -43 -25 l-28 -25 30 -25
c32 -27 31 -28 -17 -56 -23 -12 -230 -20 -248 -9 -15 9 -40 -1 -70 -28 -58
-52 -74 -59 -151 -61 -65 -2 -66 -2 -78 28 -23 55 -137 75 -189 32 -15 -12
-38 -26 -52 -32 -89 -39 -108 -53 -128 -98 -12 -25 -30 -57 -42 -71 -43 -53
-39 -177 7 -201 27 -14 61 -14 77 1 11 11 36 1 36 -14 0 -12 -27 -41 -74 -79
-37 -30 -30 -54 18 -63 20 -3 36 -10 36 -15 0 -4 29 -30 65 -56 39 -29 69 -60
75 -77 15 -42 13 -58 -7 -54 -10 3 -40 -4 -68 -15 -66 -26 -85 -26 -117 -5
-36 25 -66 16 -116 -35 -55 -58 -59 -77 -22 -110 31 -28 37 -42 20 -52 -18
-11 -11 -63 10 -78 20 -14 20 -15 -11 -27 -43 -18 -78 -58 -86 -100 -3 -19
-13 -50 -20 -69 -8 -19 -12 -45 -8 -58 6 -24 49 -48 66 -37 5 3 9 -3 9 -13 0
-35 23 -53 75 -59 28 -3 61 -14 75 -25 70 -54 139 -68 269 -55 49 6 74 14 100
35 68 53 99 57 169 25 20 -9 49 -14 72 -11 l39 4 -27 -46 c-15 -25 -41 -67
-59 -93 -36 -54 -34 -77 7 -111 23 -18 29 -33 35 -82 15 -130 5 -143 -67 -87
-69 53 -97 63 -167 58 -76 -6 -130 -39 -168 -103 -37 -65 -54 -77 -151 -109
-68 -22 -89 -34 -117 -67 -33 -38 -61 -104 -67 -158 -2 -16 11 -54 31 -92 27
-53 43 -71 78 -89 23 -13 43 -26 43 -30 0 -5 -3 -7 -7 -6 -20 5 -82 -14 -95
-30 -38 -44 -26 -75 37 -96 49 -17 54 -31 18 -50 -65 -33 -67 -101 -5 -143 27
-18 38 -20 57 -11 24 11 46 54 59 114 8 36 30 58 63 67 16 3 36 -5 68 -30 57
-43 97 -50 168 -29 70 20 97 52 97 112 0 53 -21 67 -88 61 -26 -2 -56 -1 -67
3 -17 6 -15 9 17 24 37 18 64 24 126 30 44 4 86 -27 72 -54 -15 -27 -5 -42 54
-77 83 -51 103 -56 119 -32 l14 20 54 -21 c56 -21 114 -26 123 -12 3 5 32 17
66 27 43 13 70 28 91 52 25 29 34 33 59 28 45 -10 63 -55 77 -185 9 -87 9
-456 0 -550 -4 -41 -13 -131 -20 -200 -7 -68 -13 -165 -13 -215 l1 -90 38 -9
c26 -7 48 -6 71 2 27 10 41 9 77 -3 24 -9 57 -13 74 -10 44 8 115 27 115 31 0
1 -18 36 -40 76 -29 54 -41 90 -45 133 -3 33 -7 76 -10 95 -3 19 -7 51 -10 70
-3 19 -7 46 -10 60 -3 14 -8 125 -10 247 l-3 221 31 -9 c55 -16 85 -11 93 13
10 32 34 47 70 46 17 -1 46 7 65 16 19 9 54 22 79 27 54 12 110 38 110 51 0 5
10 6 23 2 33 -11 63 -7 107 16 34 17 40 18 40 5 0 -22 39 -19 103 10 31 13 67
27 79 29 13 3 41 10 63 15 22 5 58 8 80 7 84 -6 107 34 34 56 -22 6 -44 17
-50 25 -6 7 -16 13 -22 13 -5 0 -25 11 -44 26 -36 27 -40 48 -21 100 20 56
-14 97 -87 103 -9 1 -15 11 -15 27 0 26 2 26 44 21 24 -4 70 -19 102 -33 72
-34 139 -35 205 -5 94 42 90 75 -16 126 -66 32 -73 39 -79 70 -5 25 -15 39
-37 51 -17 8 -36 13 -43 11 -7 -3 -19 -1 -27 4 -10 6 -10 9 -1 9 32 0 6 32
-50 60 -104 50 -221 36 -198 -25 10 -27 5 -33 -53 -60 -58 -27 -117 -125 -117
-196 0 -26 -2 -27 -31 -19 -17 5 -47 21 -67 36 -35 27 -71 32 -137 19 -11 -2
-27 -4 -35 -4 -8 -1 -47 -35 -87 -77 -60 -63 -73 -73 -73 -54 0 40 45 103 129
179 45 40 101 101 124 134 32 46 63 75 131 119 l88 58 30 -25 c16 -14 33 -26
36 -26 53 -9 71 -7 87 11 10 11 15 26 12 34 -6 15 30 49 43 41 4 -2 21 -7 38
-10 34 -6 72 21 72 49 0 17 -27 46 -43 46 -7 0 -6 4 3 10 20 13 6 23 -32 23
-29 0 -57 19 -58 39 0 9 52 57 81 73 13 7 60 31 104 53 75 38 125 74 125 90
-1 18 -20 33 -73 58 -32 14 -64 27 -71 28 -7 1 -26 10 -42 21 -39 26 -79 28
-137 9 -69 -23 -79 -7 -29 46 37 38 42 41 64 29 13 -7 52 -14 88 -16 36 -1 83
-9 105 -17 60 -23 90 -27 203 -32 94 -3 103 -2 100 14 -2 9 -18 26 -35 37 -45
28 -41 59 10 78 19 7 22 28 7 43 -12 12 -3 44 11 44 22 0 6 18 -31 36 -22 10
-40 24 -40 30 0 17 23 34 45 34 12 0 25 3 28 7 9 8 -24 32 -44 33 -25 0 -30
26 -10 44 9 9 32 19 49 22 36 7 39 15 16 39 -24 24 -10 45 31 45 30 0 35 3 31
18 -7 22 1 33 39 53 25 12 30 21 28 47 -2 43 -18 61 -81 89 -67 29 -120 36
-174 22 -24 -6 -72 -13 -107 -15 -74 -5 -100 -18 -131 -68 -15 -25 -29 -36
-46 -36 -21 0 -24 5 -24 34 0 19 -5 38 -11 41 -18 12 -29 54 -20 79 10 24 -4
53 -41 90 -20 19 -23 36 -9 36 18 0 95 91 96 113 0 15 14 28 52 47 58 28 66
46 26 56 l-26 7 22 19 c13 10 31 18 41 18 34 0 41 24 20 66 -20 37 -81 81 -99
70 -5 -3 -27 8 -49 24 -50 36 -143 64 -189 57 -19 -4 -53 -15 -74 -26 -37 -20
-71 -23 -85 -8 -3 3 -1 20 5 38 16 47 -5 74 -76 96 -32 9 -61 21 -64 26 -7 10
-59 -2 -59 -13 0 -4 -8 -10 -17 -14 -67 -24 -72 -24 -111 -5 -22 11 -57 23
-78 26 -22 3 -42 10 -45 15 -4 6 -20 3 -40 -5 -20 -8 -43 -11 -55 -7 -11 4
-55 6 -97 5 -42 -2 -77 0 -77 3 0 4 -29 7 -65 7 -36 1 -65 -2 -65 -6z m153
-156 c-16 -34 -18 -36 -21 -15 -2 13 4 32 14 43 25 28 28 16 7 -28z m261 -138
c18 -14 24 -26 21 -44 -7 -39 11 -59 60 -67 51 -7 61 -16 40 -34 -8 -7 -15
-19 -15 -26 0 -8 -12 -17 -26 -20 -20 -5 -31 -1 -50 20 -14 14 -34 26 -44 26
-21 0 -24 10 -22 73 1 20 -2 37 -7 37 -9 0 -21 46 -14 54 8 8 31 0 57 -19z
m-64 -15 c0 -11 -4 -20 -9 -20 -11 0 -22 26 -14 34 12 12 23 5 23 -14z m11
-87 c0 -10 2 -26 4 -36 2 -11 1 -16 -2 -13 -8 8 -43 -24 -43 -39 0 -13 -104
-37 -108 -24 -8 19 -1 24 45 34 40 8 49 14 51 35 4 26 29 60 44 60 4 0 8 -8 9
-17z m-409 -227 c-2 -3 -9 -20 -16 -38 l-14 -32 -11 42 c-15 52 -7 68 22 49
12 -8 21 -17 19 -21z m-49 -75 c23 -66 22 -71 -19 -116 -28 -31 -37 -36 -44
-25 -6 10 -4 20 6 31 17 19 15 47 -3 67 -28 29 -6 90 32 92 6 0 18 -22 28 -49z
m860 -44 c3 -23 8 -51 11 -62 8 -28 -6 -45 -40 -51 -38 -5 -53 6 -55 41 -3 53
1 70 23 96 31 37 54 27 61 -24z m-436 -14 c15 -23 15 -27 0 -53 -17 -28 -17
-29 9 -49 22 -17 24 -23 14 -36 -17 -21 -57 -19 -69 3 -5 10 -8 32 -5 49 4 27
1 32 -24 41 -24 8 -30 17 -34 46 -2 20 1 37 6 39 24 8 88 -17 103 -40z m-524
-100 c-7 -2 -19 -2 -25 0 -7 3 -2 5 12 5 14 0 19 -2 13 -5z m592 -43 c3 -5 1
-10 -4 -10 -6 0 -11 5 -11 10 0 6 2 10 4 10 3 0 8 -4 11 -10z m395 -76 c-27
-25 -37 -41 -35 -56 3 -13 -5 -30 -21 -45 -18 -17 -25 -33 -24 -60 1 -88 -6
-93 -37 -25 -24 51 -50 70 -95 68 -35 -2 -36 11 -3 26 22 10 29 20 27 39 -1 3
22 17 51 30 29 12 59 28 67 35 16 12 36 18 82 21 27 2 27 2 -12 -33z m-1091
-125 c15 -16 18 -26 11 -40 -6 -10 -10 -29 -10 -43 0 -21 -5 -26 -24 -26 -14
0 -27 -4 -30 -8 -6 -10 -93 -8 -124 3 -52 16 -25 64 32 59 30 -2 39 2 58 29
37 54 56 59 87 26z m1087 -189 c5 0 14 -13 20 -28 9 -23 21 -31 58 -41 26 -6
64 -23 84 -36 20 -13 52 -25 69 -27 l33 -2 -28 -26 -27 -25 -22 23 c-12 12
-33 22 -46 22 -14 0 -37 7 -53 15 -16 8 -31 11 -34 7 -7 -10 -43 -8 -117 8
-47 10 -70 11 -97 3 -20 -6 -38 -7 -41 -3 -3 4 24 34 60 65 37 33 65 66 65 77
0 17 3 17 33 -6 19 -15 38 -26 43 -26z m-603 -32 c52 -70 82 -126 73 -136 -4
-3 -36 -7 -71 -8 -36 -2 -69 -5 -74 -8 -5 -3 -12 -27 -16 -54 -8 -55 -45 -105
-75 -100 -34 5 -127 99 -135 136 -8 40 -78 130 -111 142 -28 11 -33 40 -6 40
10 0 42 -8 71 -19 50 -17 91 -18 91 -1 0 4 15 15 32 23 31 15 34 15 53 -3 11
-10 32 -22 48 -25 25 -7 27 -5 27 27 0 70 34 65 93 -14z m77 -10 c0 -6 -6 -5
-15 2 -8 7 -15 14 -15 16 0 2 7 1 15 -2 8 -4 15 -11 15 -16z m125 -25 l43 -47
37 17 c36 17 85 23 85 10 0 -47 -27 -143 -47 -167 -43 -51 -66 -106 -60 -144
5 -25 -2 -50 -24 -98 -17 -35 -34 -62 -39 -59 -4 3 -11 26 -15 52 -5 27 -9 53
-11 60 -1 6 -5 29 -8 50 -3 21 -8 49 -10 63 -7 33 0 41 61 69 47 22 74 53 59
68 -3 3 -37 6 -76 7 -67 1 -70 2 -71 26 0 14 -3 34 -5 45 -9 37 -7 65 6 80 19
23 27 19 75 -32z m-76 -488 c1 -77 -1 -125 -8 -129 -10 -6 -23 25 -30 72 -6
39 -85 73 -175 76 -33 1 -51 6 -56 16 -3 8 -16 34 -27 58 -24 46 -23 47 23 30
27 -9 37 -9 57 5 23 15 25 14 43 -9 28 -38 74 -35 120 6 48 41 49 38 53 -125z
m-341 93 c17 -37 18 -43 5 -46 -9 -2 -18 0 -22 6 -3 5 -24 18 -46 30 l-40 20
35 15 c48 21 45 22 68 -25z m712 2 c32 -21 75 -37 122 -45 21 -3 39 -9 42 -13
4 -7 -46 -138 -79 -208 -21 -44 -127 -204 -156 -234 -13 -14 -41 -38 -62 -54
-35 -27 -39 -28 -50 -11 -8 10 -32 19 -60 22 -43 5 -47 8 -47 33 0 22 9 33 43
53 23 14 50 34 60 44 20 22 67 138 67 164 0 28 -50 34 -117 13 -29 -8 -29 4
-3 82 39 113 62 162 77 160 8 -1 36 3 61 9 50 13 63 11 102 -15z m277 -120
c51 0 37 -45 -19 -62 -47 -14 -65 -40 -50 -74 10 -21 7 -25 -51 -57 -34 -19
-63 -33 -64 -32 -3 2 53 138 87 212 19 42 20 42 47 28 15 -8 38 -15 50 -15z
m-1327 -134 c0 -40 -11 -26 -17 21 -3 28 -1 34 6 23 6 -8 11 -28 11 -44z m239
-117 c39 -82 111 -110 182 -73 29 14 32 14 44 -3 13 -17 27 -78 22 -98 -4 -19
-53 -12 -96 15 -52 33 -80 31 -130 -7 l-34 -26 -63 33 c-57 29 -89 60 -64 60
6 0 10 20 10 43 0 29 6 49 18 59 17 15 72 47 82 47 3 1 16 -22 29 -50z m396
-114 c-3 -14 -7 -36 -10 -50 -4 -19 -12 -25 -31 -25 -33 0 -64 17 -64 35 0 12
5 12 25 3 29 -13 42 -5 49 32 2 14 5 26 5 28 1 1 8 2 16 2 11 0 14 -7 10 -25z
m-90 -379 c24 -18 29 -49 7 -42 -9 3 -34 6 -54 8 -39 2 -42 5 -32 32 8 20 53
21 79 2z m-864 -42 c-18 -8 -36 -13 -39 -10 -6 7 37 25 58 25 8 -1 0 -7 -19
-15z"/>
</g>
</svg>
